<svg xmlns="http://www.w3.org/2000/svg" viewBox="0 0 1024 1024">
    <g>
      <path fill="#2d8cf0" d="M959.944007 548.731409c0-141.230346-71.287089-265.694788-179.753531-339.733533 2.111736-8.766904 3.51956-17.853768 3.51956-27.324584 0-64.823897-52.601425-117.425322-117.489314-117.425322-49.465817 0-91.572553 30.588176-108.914386 73.846769-2.87964-0.063992-5.695288-0.447944-8.574928-0.447944-225.059868 0-407.629046 180.777403-410.95663 405.005374C94.580177 559.994001 64.055993 602.100737 64.055993 651.43857c0 64.823897 52.601425 117.425322 117.489314 117.425322 6.527184 0 12.862392-0.895888 19.133608-1.91976 72.758905 115.697538 201.254843 192.807899 347.988501 192.807899 55.289089 0 108.018498-11.070616 156.204474-30.908136 20.861392 19.005624 48.377953 30.908136 78.774153 30.908136 64.887889 0 117.489314-52.601425 117.489314-117.489314 0-21.181352-6.015248-40.762905-15.870016-57.912761C932.235471 717.606299 959.944007 636.464442 959.944007 548.731409zM843.414573 741.731284c-17.533808-10.430696-37.819273-16.829896-59.704537-16.829896-64.887889 0-117.489314 52.601425-117.489314 117.489314 0 12.606424 2.495688 24.572928 6.207224 35.963505-38.523185 14.462192-80.117985 22.71716-123.696538 22.71716-122.928634 0-230.947132-62.968129-294.043245-158.31621 26.812648-21.501312 44.410449-54.201225 44.410449-91.316585 0-59.640545-44.602425-108.338458-102.131234-115.889514 6.911136-188.520435 161.579803-339.221597 351.764029-339.221597 0.511936 0 0.95988 0.063992 1.471816 0.063992 7.295088 57.848769 56.184977 102.707162 116.017498 102.707162 34.043745 0 64.439945-14.71816 85.941257-37.819273 90.100737 63.800025 149.101362 168.618923 149.101362 287.388076C901.19935 620.018498 879.826022 686.250219 843.414573 741.731284z"></path>
    </g>
</svg>
