<svg viewBox="0 0 1150 1024" xmlns="http://www.w3.org/2000/svg">
  <path fill="#2d8cf0" d="M584.205128 90.584615V57.764103H295.384615c-81.394872 0-154.912821 32.820513-208.738461 86.646153-52.512821 52.512821-86.646154 127.34359-86.646154 208.738462v78.769231c0 64.328205 21.005128 124.717949 56.451282 173.292307 35.446154 48.574359 85.333333 86.646154 143.097436 106.338462l10.502564-31.507692H177.230769v231.05641l183.794872-183.794872h223.179487c81.394872 0 154.912821-32.820513 208.738462-86.646154s86.646154-127.34359 86.646154-208.738461v-78.769231c0-81.394872-32.820513-154.912821-86.646154-208.738462-52.512821-53.825641-127.34359-86.646154-208.738462-86.646153v65.641025c63.015385 0 120.779487 26.25641 162.789744 66.953846 42.010256 42.010256 66.953846 98.461538 66.953846 162.789744v78.769231c0 63.015385-26.25641 120.779487-66.953846 162.789743-42.010256 42.010256-98.461538 66.953846-162.789744 66.953846H334.769231l-90.584616 90.584616V656.410256l-22.317948-7.876923C177.230769 632.779487 137.846154 603.897436 110.276923 565.825641c-27.569231-38.071795-43.323077-84.020513-43.323077-133.907692v-78.769231c0-63.015385 26.25641-120.779487 66.953846-162.789744 42.010256-42.010256 98.461538-66.953846 162.789744-66.953846h288.820513V90.584615z"></path>
  <path fill="#2d8cf0" d="M628.841026 388.594872v32.820513h210.051282c43.323077 0 82.707692 18.379487 111.589743 45.948718 28.882051 28.882051 45.948718 68.266667 45.948718 111.589743v57.764103c0 34.133333-11.815385 66.953846-30.194872 93.210256-19.692308 26.25641-45.948718 45.948718-77.45641 56.451282l-22.317949 7.876923v55.138462l-53.825641-53.825641h-183.794871c-43.323077 0-82.707692-18.379487-111.589744-45.948718-28.882051-28.882051-45.948718-68.266667-45.948718-111.589744v-57.764102c0-43.323077 18.379487-82.707692 45.948718-111.589744 28.882051-28.882051 68.266667-45.948718 111.589744-45.948718v-66.953846c-61.702564 0-118.153846 24.94359-158.851282 65.641026-40.697436 40.697436-65.641026 97.148718-65.641026 158.851282v57.764102c0 61.702564 24.94359 118.153846 65.641026 158.851282 40.697436 40.697436 97.148718 65.641026 158.851282 65.641026h158.851282l145.723077 145.723077V817.887179h-32.820513l10.502564 31.507693c43.323077-15.753846 81.394872-43.323077 108.964102-80.082051 26.25641-36.758974 43.323077-82.707692 43.323077-131.282052v-57.764102c0-61.702564-24.94359-118.153846-65.641025-158.851282-40.697436-40.697436-97.148718-65.641026-158.851282-65.641026h-210.051282v32.820513z"></path>
</svg>
