<svg xmlns="http://www.w3.org/2000/svg" viewBox="0 0 1024 1024">
    <g>
      <path  fill="#2d8cf0" d="M647.711972 606.496837a29.601727 29.601727 0 0 0 0-59.190677H585.263443l59.305661-59.305661a29.588951 29.588951 0 0 0-41.841025-41.841025l-73.346359 73.346359-73.333583-73.346359a29.588951 29.588951 0 0 0-41.841025 41.841025l59.305661 59.305661h-62.47408a29.576175 29.576175 0 1 0 0 59.190677h88.754076v59.139574h-88.754076a29.588951 29.588951 0 0 0 0 59.203454h88.754076v78.891093a29.576175 29.576175 0 1 0 59.165126 0v-78.891093h88.754077a29.576175 29.576175 0 0 0 29.588951-29.614503 29.576175 29.576175 0 0 0-29.588951-29.588951h-88.754077v-59.139574h88.754077z"></path>
      <path  fill="#2d8cf0" d="M1021.687693 704.181258C1013.958282 490.223503 830.304928 347.644621 743.786631 292.107846c28.694639-32.016369 57.504261-77.102469 64.301032-124.23271 4.957044-34.226597-2.67016-65.489189-22.063955-90.440494-24.772442-31.760851-54.18253-38.429864-74.496188-38.429864-25.526219 0-49.084952 10.514554-67.367244 22.20449-21.284625-28.554104-57.925865-60.88987-114.778556-61.094285-0.638794 0-1.252037 0-1.890831 0.038328-55.792292 0.779329-91.858617 32.75737-112.887724 61.030405-18.282292-11.651608-41.853801-22.166161-67.303365-22.166162-20.313658 0-49.723746 6.669012-74.496189 38.429864-19.432122 24.951304-27.059326 56.213896-22.102282 90.504373 6.809547 47.130242 35.619169 92.152462 64.301032 124.156055C228.471289 347.644621 44.779607 490.223503 37.050196 704.181258c-3.81999 105.797108 21.489039 187.677758 75.17331 243.367843 65.016481 67.367244 151.611433 74.649499 185.786928 74.649499h462.704245c34.226597 0 120.808773-7.269479 185.825255-74.675051 53.697047-55.690085 79.006076-137.545183 75.147759-243.342291zM330.384527 122.354656c8.023256-10.335691 14.015146-10.335691 16.902497-10.335692 17.579618 0 41.853801 19.789847 50.796921 29.269554a36.257963 36.257963 0 0 0 33.753889 10.910606 36.743447 36.743447 0 0 0 27.199861-22.919938c0.855984-2.286884 21.64235-55.17905 69.296403-56.150017 0.396052 0.038328 0.779329 0.038328 1.213709 0.038327 48.19064 0.140535 69.258075 53.824806 70.075732 55.856172a36.500705 36.500705 0 0 0 60.915422 12.379833c9.058103-9.59469 33.370613-29.371761 50.975783-29.371761 2.88735 0 8.87924 0 16.902497 10.297364 4.522663 5.813028 10.233484 15.790994 7.410013 35.108133-5.672493 39.209193-41.853801 85.445122-68.082694 106.946938-3.066213-0.817657-6.030218-1.890831-9.339172-1.890831h-256.795299c-3.666679 0-6.988409 1.073174-10.335691 2.069693-26.241669-21.348505-62.627391-67.699417-68.338212-107.087472-2.810695-19.329915 2.88735-29.320657 7.448341-35.120909z m563.620966 774.461404c-45.597135 47.270776-108.403389 52.368355-133.278038 52.368354H298.023209c-24.887425 0-87.655351-5.097578-133.252485-52.330027-39.388055-40.857282-57.84921-104.800589-54.795773-190.028521C117.857672 488.945915 358.798097 349.599331 389.025842 332.952352c3.960525 1.456451 8.125463 2.529625 12.584247 2.529626h256.795299c4.139387 0 7.946601-1.073174 11.651608-2.350763 32.220783 17.681826 270.810445 156.172425 278.693166 373.694651 3.066213 85.227932-15.318287 149.145688-54.744669 189.990194z" />
    </g>
</svg>

